<?xml version="1.0" encoding="UTF-8"?>
<svg id="Layer_2" data-name="Layer 2" xmlns="http://www.w3.org/2000/svg" viewBox="0 0 271.19 273.16">
  <defs>
    <style>
      .cls-1 {
        fill: #ce3939;
      }

      .cls-1, .cls-2 {
        stroke-width: 0px;
      }

      .cls-2 {
        fill: #fff;
      }
    </style>
  </defs>
  <g id="Thiệp">
    <g>
      <path class="cls-2" d="m267.6,147.31c-1.26-3.45-11.94-30.71-35.49-30.71-3.89,0-7.75.58-11.48,1.71-.83-1.4-1.76-2.7-2.81-3.91-5.07-5.89-12.5-9.13-20.9-9.13-5.26,0-10.25,1.19-14.82,3.48-1.63-4.73-3.68-9.74-6.14-14.72,3.18,1.37,6.45,2.65,9.82,3.83,1.59.55,3.23.83,4.9.83,6.32,0,11.96-4,14.05-9.98,2.7-7.75-1.4-16.25-9.14-18.96C147.33,52.91,122.44,8.26,122.23,7.87,119.71,3.16,114.83.15,109.56.01c-.17,0-.32-.01-.49-.01-5.24,0-10,2.7-12.71,7.2-24.96,41.35-69.89,62.91-70.31,63.11-7.43,3.46-10.67,12.34-7.21,19.77,2.43,5.24,7.73,8.61,13.5,8.61,1.01,0,2.01-.11,2.98-.31-4.99,10.26-8.16,20.21-10.11,27.86-1.49-.33-2.93-.78-4.31-1.39-1.9-.84-3.93-1.27-6-1.27-3.78,0-7.39,1.42-10.14,4-4.37,4.06-5.89,10.31-3.87,15.92,2.18,6.06,7.71,14.39,17.42,20.78-4.55,32.08,5.26,61.29,27.48,80.07,5.76,5.73,32.29,28.8,86.88,28.8,8.35,0,51.4-.92,80.75-18.95,22.61-12.91,33.83-27.24,44.25-42.02,21.79-30.94,11-62.04,9.95-64.87Z"/>
      <path class="cls-1" d="m132.66,262.13c-52.78,0-76.89-23.3-79.4-25.89-22.33-18.62-30.35-49.64-21.45-83.06l7.46,1.99c-8.13,30.51-.99,58.65,19.09,75.27l.36.34c.21.23,22.85,23.63,73.94,23.63,20.68,0,51.71-4.27,71.12-16.29l.12-.07c19.46-11.07,28.56-22.66,38.42-36.66,16.55-23.49,8.06-46.6,7.69-47.57-1.89-5.18-8.73-18.46-17.91-18.46-10.81,0-17.58,8.2-18.83,9.84l-1.8,2.38-2.85-1.12c-1.65-.69-2.63-2.41-2.39-4.18.6-4.01.71-11.77-2.61-15.63-1.52-1.77-3.72-2.63-6.7-2.63-11.97,0-17.08,14.11-18.36,18.43-.55,1.86-2.33,3.09-4.28,2.91-1.93-.17-3.49-1.7-3.7-3.63-1.39-12.42-10.94-74.41-62.92-74.41-56.43,0-66.59,74.68-66.69,75.43l-7.66-.98c.11-.83,2.71-20.6,12.97-40.67,13.88-27.15,35.1-41.5,61.37-41.5,24.76,0,44.6,12.87,57.37,37.22,6.01,11.45,9.38,23.33,11.24,32.09,4-6.33,10.53-12.61,20.66-12.61,5.22,0,9.55,1.83,12.55,5.31,3,3.48,4.23,8.05,4.65,12.17,4.28-3.14,10.36-6.13,17.99-6.13,16.48,0,24.8,22.53,25.15,23.49.4,1.04,10.38,27.74-8.62,54.71-10.06,14.28-20.08,27.06-40.85,38.89-26.81,16.57-67.28,17.41-75.12,17.41Z"/>
      <path class="cls-1" d="m190.67,87.67c-.42,0-.85-.07-1.27-.22-45.38-15.85-71.61-51.4-80.39-65.19-28.5,43.08-73.09,64.14-75.05,65.05-1.93.89-4.23.06-5.12-1.87-.9-1.93-.06-4.23,1.87-5.13.48-.22,48.14-22.78,75.09-67.41.72-1.19,1.99-1.91,3.4-1.86,1.39.04,2.65.81,3.3,2.04.26.48,26.62,48.65,79.43,67.09,2.01.7,3.07,2.9,2.37,4.92-.56,1.59-2.05,2.59-3.64,2.59Z"/>
      <path class="cls-1" d="m66.79,125.61c-2.13,0-3.86-1.73-3.86-3.86v-23.55c0-2.13,1.73-3.86,3.86-3.86s3.86,1.73,3.86,3.86v23.55c0,2.13-1.73,3.86-3.86,3.86Z"/>
      <path class="cls-1" d="m85.55,131.28c-2.13,0-3.86-1.73-3.86-3.86v-23.55c0-2.13,1.73-3.86,3.86-3.86s3.86,1.73,3.86,3.86v23.55c0,2.13-1.73,3.86-3.86,3.86Z"/>
      <path class="cls-1" d="m53.24,162.85c-33.26,0-41.6-22.02-41.98-23.07-.52-1.45-.13-3.08,1-4.13,1.13-1.05,2.78-1.33,4.19-.71,20.09,8.87,41.11-5.32,41.32-5.46,1.76-1.21,4.16-.77,5.36.99,1.21,1.75.77,4.15-.98,5.36-.85.59-18.04,12.27-37.94,9.32,6.2,5.95,18.43,12.48,41.27,8.99,2.11-.32,4.08,1.13,4.4,3.23.32,2.11-1.13,4.08-3.23,4.4-4.86.74-9.33,1.08-13.41,1.08Z"/>
      <path class="cls-1" d="m182.38,212.7c-1.72,0-3.28-1.16-3.73-2.9-.53-2.06.71-4.17,2.77-4.7.05-.01,6.12-1.8,6.12-5.28,0-.12,0-.19-.2-.39-1.59-1.56-6.8-2.2-9.82-2.15-.02,0-.05,0-.07,0-1.97,0-3.63-1.49-3.84-3.46-.21-1.99,1.14-3.81,3.1-4.19,10.92-2.11,19.99-9.26,20.22-13.77.15-2.95-5-4.83-7.22-5.5-19.53-5.89-60.47,13.82-60.88,14.02-1.92.93-4.23.13-5.16-1.78-.93-1.92-.13-4.23,1.78-5.16,1.79-.87,44.07-21.22,66.48-14.47,11.47,3.46,12.88,9.8,12.71,13.28-.33,6.4-6.17,12.31-13.6,16.32.62.39,1.19.84,1.7,1.34,1.65,1.62,2.52,3.66,2.52,5.91,0,7.64-7.49,11.61-11.91,12.75-.32.08-.65.12-.97.12Z"/>
    </g>
  </g>
</svg>