<?xml version="1.0" encoding="UTF-8"?>
<svg id="Layer_2" data-name="Layer 2" xmlns="http://www.w3.org/2000/svg" viewBox="0 0 246.07 288.32">
  <defs>
    <style>
      .cls-1 {
        letter-spacing: 0em;
      }

      .cls-2, .cls-3 {
        stroke-width: 0px;
      }

      .cls-2, .cls-4 {
        fill: #ce3939;
      }

      .cls-3 {
        fill: #fff;
      }

      .cls-5 {
        letter-spacing: .02em;
      }

      .cls-4 {
        font-family: FormaDJRBanner-Regular, 'Forma DJR Banner';
        font-size: 30.73px;
      }

      .cls-6 {
        letter-spacing: 0em;
      }
    </style>
  </defs>
  <g id="Layer_1-2" data-name="Layer 1">
    <g>
      <path class="cls-3" d="m0,124.07h214.58c17.38,0,31.49,14.11,31.49,31.49v132.76H0V124.07h0Z"/>
      <g>
        <path class="cls-3" d="m242.74,133.61c-1.14-3.13-10.83-27.85-32.19-27.85-3.53,0-7.03.53-10.41,1.55-.75-1.27-1.6-2.45-2.55-3.55-4.6-5.34-11.34-8.28-18.96-8.28-4.77,0-9.3,1.08-13.44,3.16-1.48-4.29-3.34-8.83-5.57-13.35,2.88,1.24,5.85,2.4,8.91,3.47,1.44.5,2.93.75,4.44.75,5.73,0,10.85-3.63,12.74-9.05,2.45-7.03-1.27-14.74-8.29-17.2C133.66,47.99,111.08,7.49,110.89,7.14,108.61,2.87,104.18.14,99.4.01c-.15,0-.29-.01-.44-.01-4.75,0-9.07,2.45-11.53,6.53-22.64,37.5-63.39,57.06-63.77,57.24-6.74,3.14-9.68,11.19-6.54,17.93,2.2,4.75,7.01,7.81,12.24,7.81.92,0,1.82-.1,2.7-.28-4.53,9.31-7.4,18.33-9.17,25.27-1.35-.3-2.66-.71-3.91-1.26-1.72-.76-3.56-1.15-5.44-1.15-3.43,0-6.7,1.29-9.2,3.63-3.96,3.68-5.34,9.35-3.51,14.44,1.98,5.5,6.99,13.05,15.8,18.85-4.13,29.1,4.77,55.59,24.92,72.62,5.22,5.2,29.29,26.12,78.8,26.12,7.57,0,46.62-.83,73.24-17.19,20.51-11.71,30.68-24.71,40.13-38.11,19.76-28.06,9.98-56.27,9.02-58.84Z"/>
        <path class="cls-2" d="m120.35,237.75c-47.87,0-69.73-21.13-72.02-23.49-20.25-16.88-27.52-45.03-19.45-75.33l6.76,1.8c-7.37,27.67-.9,53.19,17.31,68.27l.33.31c.19.21,20.73,21.43,67.06,21.43,18.75,0,46.9-3.87,64.51-14.78l.11-.07c17.65-10.04,25.9-20.55,34.85-33.25,15.01-21.31,7.31-42.27,6.98-43.15-1.71-4.7-7.92-16.74-16.25-16.74-9.8,0-15.95,7.43-17.08,8.92l-1.64,2.15-2.59-1.02c-1.5-.62-2.39-2.18-2.16-3.79.54-3.64.65-10.67-2.37-14.17-1.38-1.6-3.37-2.38-6.08-2.38-10.86,0-15.49,12.79-16.66,16.72-.5,1.69-2.12,2.8-3.88,2.64-1.75-.16-3.17-1.54-3.36-3.29-1.26-11.27-9.92-67.49-57.07-67.49-51.18,0-60.4,67.73-60.48,68.41l-6.94-.88c.1-.75,2.46-18.68,11.76-36.89,12.59-24.63,31.83-37.64,55.67-37.64,22.46,0,40.45,11.67,52.03,33.75,5.45,10.38,8.51,21.16,10.19,29.11,3.63-5.74,9.55-11.43,18.74-11.43,4.73,0,8.67,1.66,11.38,4.81,2.72,3.16,3.84,7.3,4.22,11.04,3.88-2.85,9.39-5.56,16.32-5.56,14.94,0,22.49,20.43,22.81,21.3.37.95,9.42,25.16-7.82,49.62-9.12,12.95-18.21,24.55-37.05,35.27-24.32,15.03-61.02,15.79-68.14,15.79Z"/>
        <path class="cls-2" d="m172.97,79.51c-.38,0-.77-.06-1.15-.2-41.16-14.37-64.95-46.62-72.91-59.13-25.85,39.07-66.29,58.17-68.07,59-1.75.81-3.83.05-4.65-1.7-.81-1.75-.05-3.83,1.7-4.65.43-.2,43.66-20.66,68.11-61.14.65-1.08,1.81-1.73,3.09-1.69,1.26.03,2.4.74,3,1.85.23.44,24.14,44.12,72.05,60.85,1.82.64,2.79,2.63,2.15,4.46-.5,1.44-1.86,2.35-3.3,2.35Z"/>
        <path class="cls-2" d="m60.62,113.93c-1.93,0-3.5-1.57-3.5-3.5v-21.36c0-1.93,1.57-3.5,3.5-3.5s3.5,1.57,3.5,3.5v21.36c0,1.93-1.57,3.5-3.5,3.5Z"/>
        <path class="cls-2" d="m77.63,119.07c-1.93,0-3.5-1.57-3.5-3.5v-21.36c0-1.93,1.57-3.5,3.5-3.5s3.5,1.57,3.5,3.5v21.36c0,1.93-1.57,3.5-3.5,3.5Z"/>
        <path class="cls-2" d="m48.32,147.7c-30.17,0-37.73-19.97-38.08-20.92-.47-1.32-.12-2.79.91-3.75,1.02-.96,2.52-1.21,3.8-.64,18.22,8.05,37.29-4.82,37.48-4.95,1.59-1.09,3.77-.69,4.87.9,1.1,1.59.7,3.76-.89,4.86-.77.53-16.37,11.13-34.42,8.45,5.62,5.4,16.72,11.32,37.43,8.16,1.92-.29,3.7,1.02,3.99,2.93.29,1.91-1.02,3.7-2.93,3.99-4.41.67-8.46.98-12.16.98Z"/>
        <path class="cls-2" d="m165.45,192.92c-1.56,0-2.98-1.05-3.39-2.63-.48-1.87.64-3.78,2.51-4.26.04-.01,5.55-1.63,5.55-4.79,0-.1,0-.17-.18-.35-1.44-1.41-6.17-1.99-8.91-1.95-.02,0-.04,0-.06,0-1.79,0-3.29-1.35-3.48-3.13-.19-1.81,1.03-3.46,2.81-3.8,9.9-1.92,18.13-8.4,18.34-12.49.14-2.68-4.54-4.38-6.55-4.99-17.72-5.34-54.85,12.54-55.22,12.72-1.74.84-3.83.12-4.68-1.62-.85-1.74-.12-3.83,1.62-4.68,1.62-.79,39.97-19.25,60.3-13.13,10.4,3.13,11.68,8.89,11.52,12.05-.29,5.81-5.59,11.16-12.33,14.8.56.36,1.08.76,1.54,1.21,1.5,1.47,2.29,3.32,2.29,5.36,0,6.93-6.79,10.53-10.8,11.56-.29.08-.59.11-.88.11Z"/>
      </g>
      <text class="cls-4" transform="translate(2.66 280.49)"><tspan x="0" y="0">T</tspan><tspan class="cls-5" x="15.55" y="0">R</tspan><tspan class="cls-1" x="33.03" y="0">AN</tspan><tspan class="cls-6" x="70.31" y="0">G</tspan><tspan x="89.95" y="0" xml:space="preserve"> PHAM MINH</tspan></text>
    </g>
  </g>
</svg>